<svg width="1011.66744" height="692.79302" xmlns="http://www.w3.org/2000/svg">
 <title>environmental_study</title>

 <g>
  <title>background</title>
  <rect fill="none" id="canvas_background" height="402" width="582" y="-1" x="-1"/>
 </g>
 <g>
  <title>Layer 1</title>
  <path id="svg_1" fill="#84957f" d="m957.177987,563.689607c-4.36676,0 -8.55719,2.12251 -12.4624,5.9791c-10.62165,-38.27736 -27.0647,-62.87563 -45.5376,-62.87563s-34.916,24.59827 -45.5376,62.87563c-3.90521,-3.85659 -8.09564,-5.9791 -12.4624,-5.9791c-20.98682,0 -38,48.39956 -38,108.10341l192,0c0,-59.70385 -17.01319,-108.10341 -38,-108.10341z"/>
  <path id="svg_2" fill="#768571" d="m389.177447,502.517157a21.13606,21.13606 0 0 0 -12.4624,4.38468c-10.62164,-28.07008 -27.0647,-46.10882 -45.5376,-46.10882s-34.916,18.03874 -45.5376,46.10882a21.13606,21.13606 0 0 0 -12.4624,-4.38468c-20.98682,0 -38,35.493 -38,79.27586l192,0c0,-43.78284 -17.01318,-79.27586 -38,-79.27586z"/>
  <path id="svg_3" fill="#3f3d56" d="m1011.667437,692.793017l-1009.97998,0c0.91,-82.06 226.66,-148.5 504.99,-148.5s504.08007,66.44 504.98998,148.5z"/>
  <circle id="svg_4" fill="#9dbf9a" r="129.17745" cy="240.97047" cx="129.17745"/>
  <path id="svg_5" fill="#3f3d56" d="m133.344467,610.793017l-7.29228,0l0,-354.78915a122.11809,122.11809 0 0 1 3.64613,-29.61793l0,0a122.1176,122.1176 0 0 1 3.64614,29.61793l0.00001,354.78915z"/>
  <path id="svg_6" fill="#3f3d56" d="m130.107907,350.828897l-3.8411,-6.19865l53.956,-33.4348a22.97361,22.97361 0 0 1 12.47721,-3.44231l0,0a22.97361,22.97361 0 0 1 -8.63612,9.641l-53.95599,33.43476z"/>
  <path id="svg_7" fill="#3f3d56" d="m127.566107,317.132947l3.8411,-6.19864l-37.13085,-23.0088a13.81615,13.81615 0 0 0 -9.86988,-1.82663l0,0a13.81618,13.81618 0 0 0 6.02878,8.02526l37.13085,23.00881z"/>
  <path id="svg_8" fill="#3f3d56" d="m127.566107,458.811447l3.8411,-6.19865l-37.13085,-23.00883a13.81615,13.81615 0 0 0 -9.86988,-1.82663l0,0a13.81617,13.81617 0 0 0 6.02878,8.02527l37.13085,23.00884z"/>
  <circle id="svg_9" fill="#8cba86" r="124" cy="242.79302" cx="814.17745"/>
  <path id="svg_10" fill="#3f3d56" d="m810.177447,597.793017l7,0l0,-340.56914a117.22326,117.22326 0 0 0 -3.5,-28.43085l0,0a117.22326,117.22326 0 0 0 -3.5,28.43085l0,340.56914z"/>
  <path id="svg_11" fill="#3f3d56" d="m813.284277,348.248297l3.68716,-5.9502l-51.7934,-32.09473a22.053,22.053 0 0 0 -11.97713,-3.30435l0,0a22.0529,22.0529 0 0 0 8.29,9.25454l51.79337,32.09474z"/>
  <path id="svg_12" fill="#3f3d56" d="m815.724207,315.902887l-3.68715,-5.9502l35.64266,-22.08663a13.26236,13.26236 0 0 1 9.47429,-1.75342l0,0a13.26238,13.26238 0 0 1 -5.78714,7.70361l-35.64266,22.08664z"/>
  <path id="svg_13" fill="#3f3d56" d="m815.724207,451.902887l-3.68715,-5.9502l35.64266,-22.08663a13.26236,13.26236 0 0 1 9.47429,-1.75342l0,0a13.26238,13.26238 0 0 1 -5.78714,7.70361l-35.64266,22.08664z"/>
  <path id="svg_14" fill="#a5a58d" d="m148.281617,680.344747a8.0728,8.0728 0 0 0 -3.24542,0.6885c-2.76605,-4.4077 -7.0481,-7.24023 -11.85875,-7.24023s-9.0927,2.83253 -11.85875,7.24023a8.0728,8.0728 0 0 0 -3.24542,-0.6885c-5.46531,0 -9.89583,5.57328 -9.89583,12.44827l50,0c0,-6.87499 -4.43052,-12.44827 -9.89583,-12.44827z"/>
  <path id="svg_15" fill="#009a87" d="m458.281617,671.827507a5.45088,5.45088 0 0 0 -3.24542,1.15959c-2.76605,-7.42349 -7.0481,-12.19407 -11.85875,-12.19407s-9.0927,4.77058 -11.85875,12.19407a5.45088,5.45088 0 0 0 -3.24542,-1.15959c-5.46531,0 -9.89583,9.38659 -9.89583,20.96552l50,0c0,-11.57894 -4.43052,-20.96552 -9.89583,-20.96552z"/>
  <path id="svg_16" fill="#a8cda6" d="m889.281617,671.827507a5.45088,5.45088 0 0 0 -3.24542,1.15959c-2.76605,-7.42349 -7.0481,-12.19407 -11.85875,-12.19407s-9.0927,4.77058 -11.85875,12.19407a5.45088,5.45088 0 0 0 -3.24542,-1.15959c-5.46531,0 -9.89583,9.38659 -9.89583,20.96552l50,0c0,-11.57894 -4.43052,-20.96552 -9.89583,-20.96552z"/>
  <polygon id="svg_17" fill="#2f2e41" points="621.362 482.069 619.774 489.614 617.788 497.159 611.435 586.905 633.276 588.494 643.203 490.408 641.615 485.246 621.362 482.069"/>
  <path id="svg_18" fill="#2f2e41" d="m602.698347,574.594877l-9.13344,13.89872s-25.41479,20.64952 -7.14791,21.84083s25.01772,-12.31029 25.01772,-12.31029s6.35369,-1.98553 7.14791,-3.97106s-1.58843,-19.4582 -1.58843,-19.4582l-14.29585,0z"/>
  <path id="svg_19" fill="#2f2e41" d="m613.023107,585.316747s-9.13344,23.03215 -7.94212,27.00321s3.17685,3.97107 2.77974,7.545s-1.58842,11.91318 13.50161,12.31029s7.94212,-19.85531 7.94212,-19.85531l-1.98553,-27.00321l-14.29582,0.00002z"/>
  <path id="svg_20" fill="#2f2e41" d="m585.225717,414.958227s-5.55948,9.53054 -4.76527,15.48714s12.31027,69.89067 12.31027,69.89067l9.13344,77.8328l20.25241,-1.58843l-7.94212,-71.8762l1.98553,-57.18328l3.574,42.09325l23.42926,0.79421l13.89872,-59.963s-10.32476,-16.67846 -12.31029,-17.86978s-59.56595,2.38262 -59.56595,2.38262z"/>
  <circle id="svg_21" fill="#ffb8b8" r="17.07556" cy="277.36096" cx="612.82456"/>
  <polygon id="svg_22" fill="#ffb8b8" points="607.861 288.281 610.243 310.916 636.452 306.945 622.157 280.339 607.861 288.281"/>
  <path id="svg_23" fill="#d0cde1" d="m634.466837,300.194557s-13.50161,9.92765 -26.60611,4.36817l-19.8553,50.43247l0,63.13988s29.783,8.73633 46.46141,-1.58843c0,0 11.91318,-2.38263 13.89871,-1.98553s-7.14791,-107.61575 -7.14791,-107.61575l-6.7508,-6.75081z"/>
  <path id="svg_24" fill="#575a89" d="m622.156547,302.577197l9.13344,13.1045a15.80706,15.80706 0 0 1 1.58843,10.72186c-1.19132,6.3537 -2.38264,89.34888 8.73633,92.52573s18.26688,2.77974 18.26688,2.77974s-9.92765,-47.65273 -6.3537,-55.992l11.119,-50.03537l-29.38585,-16.67846s-1.83735,-7.545 -4.88974,-3.3754a28.22941,28.22941 0 0 1 -8.21479,6.9494z"/>
  <path id="svg_25" fill="#575a89" d="m595.550437,376.438927l13.56428,-76.24437l-13.56428,7.14795s-15.48714,6.3537 -18.664,13.89872s-15.88424,43.68167 -15.88424,43.68167s3.17685,21.84083 15.09,12.70739s9.13344,-13.5016 9.13344,-13.5016s-10.32476,42.09324 -8.73633,43.28456s2.38263,12.31029 2.38263,12.31029l12.31029,-2.38264l4.36821,-40.90197z"/>
  <path id="svg_26" fill="#ffb8b8" d="m580.063297,333.948577l5.16238,-7.545s11.67555,-23.42926 20.1336,-15.48713s-15.76543,26.209 -15.76543,26.209l-9.53055,-3.17687z"/>
  <polygon id="svg_27" fill="#ffb8b8" points="649.954 416.15 646.777 420.226 654.719 430.445 658.293 423.297 649.954 416.15"/>
  <path id="svg_28" fill="#2f2e41" d="m605.978577,263.216217c-1.75072,0.01763 -3.28421,1.10238 -4.72307,2.09988s-3.06982,1.99257 -4.80958,1.79622a5.18371,5.18371 0 0 1 -3.771,-2.87972a15.31547,15.31547 0 0 1 -1.32357,-4.733l1.981,0.69838l-1.60482,-1.82379l17.05779,-5.18253c5.1611,-1.56806 10.99426,-3.07915 15.7223,-0.48275a15.49441,15.49441 0 0 1 5.71162,6.22584a32.45691,32.45691 0 0 1 -0.45346,31.95824c-2.6161,-0.22267 -4.32145,-2.96271 -4.74568,-5.55377s-0.011,-5.27506 -0.53481,-7.84783s-2.48665,-5.2081 -5.111,-5.12722l-1.38185,2.94641c0.8843,-1.88552 -4.36753,-6.49 -5.61993,-7.34581a17.07428,17.07428 0 0 1 -3.05976,-2.22959c-1.08437,-1.134 -1.35712,-2.53888 -3.33418,-2.51896z"/>
  <path id="svg_29" fill="#575a89" d="m581.651717,329.580407l9.53054,5.9566l-9.53054,39.71061s-15.09,18.664 -20.64952,0c-4.65354,-15.6226 12.95134,-37.088 18.81251,-43.669c1.14101,-1.28111 1.83701,-1.99821 1.83701,-1.99821z"/>
  <path id="svg_30" fill="#575a89" d="m655.513457,314.887507l9.13344,0s7.94213,15.48714 8.73634,23.82636s0.79421,41.299 0.79421,41.299l-15.48714,46.06431l-11.91318,-8.73634l9.92765,-27.40032s-1.19132,-5.95659 0,-8.73633s-3.574,-17.07556 -4.36816,-17.86978s3.17684,-48.4469 3.17684,-48.4469z"/>
  <rect id="svg_31" fill="#3f3d56" transform="rotate(-180 1081.1009521484375,354.589111328125) " height="9.57526" width="107.45571" y="578.897781" x="1615.006692"/>
  <rect id="svg_32" fill="#3f3d56" transform="rotate(-180 1081.1009521484375,425.13671875) " height="9.57526" width="107.45571" y="684.719199" x="1615.006692"/>
  <rect id="svg_33" fill="#3f3d56" transform="rotate(-180 1081.1009521484375,488.3356628417969) " height="9.57526" width="107.45571" y="779.517603" x="1615.006692"/>
  <polygon id="svg_34" fill="#3f3d56" points="265.286 217.735 317.992 164.032 377.574 164.032 377.574 162.032 317.157 162.032 316.863 162.329 263.863 216.329 265.286 217.735"/>
  <circle id="svg_35" fill="#a8cda6" r="11.75794" cy="128.43229" cx="405.93539"/>
  <circle id="svg_36" fill="#a8cda6" r="11.75794" cy="163.70611" cx="405.93539"/>
  <circle id="svg_37" fill="#a8cda6" r="11.75794" cy="195.30557" cx="405.93539"/>
  <path id="svg_38" fill="#3f3d56" d="m399.321547,125.492807a12.49281,12.49281 0 1 1 12.49281,12.49281a12.50678,12.50678 0 0 1 -12.49281,-12.49281zm1.46974,0a11.02307,11.02307 0 1 0 11.02307,-11.02307a11.03559,11.03559 0 0 0 -11.02307,11.02307z"/>
  <path id="svg_39" fill="#3f3d56" d="m399.321547,160.766617a12.49281,12.49281 0 1 1 12.49281,12.49281a12.50678,12.50678 0 0 1 -12.49281,-12.49281zm1.46974,0a11.02307,11.02307 0 1 0 11.02307,-11.02306a11.03558,11.03558 0 0 0 -11.02307,11.02306z"/>
  <path id="svg_40" fill="#3f3d56" d="m399.321547,192.366077a12.49281,12.49281 0 1 1 12.49281,12.49281a12.50678,12.50678 0 0 1 -12.49281,-12.49281zm1.46974,0a11.02307,11.02307 0 1 0 11.02307,-11.02307a11.03558,11.03558 0 0 0 -11.02307,11.02307z"/>
  <rect id="svg_41" fill="#3f3d56" height="9.57526" width="107.45571" y="7.70518" x="536.28376"/>
  <rect id="svg_42" fill="#3f3d56" height="9.57526" width="107.45571" y="42.97899" x="536.28376"/>
  <rect id="svg_43" fill="#3f3d56" height="9.57526" width="107.45571" y="74.57845" x="536.28376"/>
  <polygon id="svg_44" fill="#3f3d56" points="808.193 114.735 765.487 51.032 705.905 51.032 705.905 49.032 766.322 49.032 766.616 49.329 809.616 113.329 808.193 114.735"/>
  <circle id="svg_45" fill="#a8cda6" r="11.75794" cy="15.43229" cx="677.54353"/>
  <circle id="svg_46" fill="#a8cda6" r="11.75794" cy="50.70611" cx="677.54353"/>
  <circle id="svg_47" fill="#a8cda6" r="11.75794" cy="82.30557" cx="677.54353"/>
  <path id="svg_48" fill="#3f3d56" d="m671.664557,24.985617a12.49281,12.49281 0 1 1 12.49281,-12.49281a12.50678,12.50678 0 0 1 -12.49281,12.49281zm0,-23.51588a11.02307,11.02307 0 1 0 11.02307,11.02307a11.03558,11.03558 0 0 0 -11.02307,-11.02307z"/>
  <path id="svg_49" fill="#3f3d56" d="m671.664557,60.259427a12.49281,12.49281 0 1 1 12.49281,-12.49281a12.50678,12.50678 0 0 1 -12.49281,12.49281zm0,-23.51587a11.02307,11.02307 0 1 0 11.02307,11.02306a11.03558,11.03558 0 0 0 -11.02307,-11.02306z"/>
  <path id="svg_50" fill="#3f3d56" d="m671.664557,91.858887a12.49281,12.49281 0 1 1 12.49281,-12.49281a12.50678,12.50678 0 0 1 -12.49281,12.49281zm0,-23.51588a11.02307,11.02307 0 1 0 11.02307,11.02307a11.03558,11.03558 0 0 0 -11.02307,-11.02307z"/>
  <rect id="svg_51" fill="#3f3d56" transform="rotate(-180 1078.0599365234375,864.6399536132811) " height="6.68754" width="75.04911" y="1345.417904" x="1626.648467"/>
  <rect id="svg_52" fill="#3f3d56" transform="rotate(-180 1078.0599365234375,913.9117431640624) " height="6.68754" width="75.04911" y="1419.325603" x="1626.648467"/>
  <rect id="svg_53" fill="#3f3d56" transform="rotate(-180 1078.0599365234375,958.0510864257811) " height="6.68754" width="75.04911" y="1485.534606" x="1626.648467"/>
  <polygon id="svg_54" fill="#3f3d56" points="332.58 444.942 369.391 407.435 411.005 407.435 411.005 406.038 368.808 406.038 368.603 406.245 331.587 443.96 332.58 444.942"/>
  <circle id="svg_55" fill="#a8cda6" r="8.21197" cy="382.57123" cx="430.81285"/>
  <circle id="svg_56" fill="#a8cda6" r="8.21197" cy="407.20713" cx="430.81285"/>
  <circle id="svg_57" fill="#a8cda6" r="8.21197" cy="429.2768" cx="430.81285"/>
  <path id="svg_58" fill="#3f3d56" d="m426.193617,380.518237a8.72522,8.72522 0 1 1 8.72521,8.72521a8.735,8.735 0 0 1 -8.72521,-8.72521zm1.02649,0a7.69872,7.69872 0 1 0 7.69872,-7.69872a7.70746,7.70746 0 0 0 -7.69872,7.69872z"/>
  <path id="svg_59" fill="#3f3d56" d="m426.193617,405.154137a8.72522,8.72522 0 1 1 8.72521,8.72522a8.735,8.735 0 0 1 -8.72521,-8.72522zm1.02649,0a7.69872,7.69872 0 1 0 7.69872,-7.69872a7.70746,7.70746 0 0 0 -7.69872,7.69872z"/>
  <path id="svg_60" fill="#3f3d56" d="m426.193617,427.223797a8.72522,8.72522 0 1 1 8.72521,8.72522a8.735,8.735 0 0 1 -8.72521,-8.72522zm1.02649,0a7.69872,7.69872 0 1 0 7.69872,-7.69872a7.70746,7.70746 0 0 0 -7.69872,7.69872z"/>
 </g>
</svg>