<?xml version="1.0" encoding="utf-8"?>
<!-- Generator: Adobe Illustrator 24.1.0, SVG Export Plug-In . SVG Version: 6.00 Build 0)  -->
<svg version="1.1" xmlns="http://www.w3.org/2000/svg" xmlns:xlink="http://www.w3.org/1999/xlink" x="0px" y="0px"
	 viewBox="0 0 3671 510" style="enable-background:new 0 0 3671 510;" xml:space="preserve">
<style type="text/css">
	.st0{fill:#3F3D56;}
</style>
<g id="bird-cells">
</g>
<g id="Layer_2">
	<path class="st0" d="M2397.5,265.2l93.1-74.5c-72.3-8-102,31.5-114.2,62.7c-56.5-23.5-118,7.3-118,7.3l186.3,67.6
		C2435.3,303.2,2418.9,281.3,2397.5,265.2z"/>
	<path class="st0" d="M215.9,287.6l93.1-74.5c-72.3-8-102,31.5-114.2,62.7c-56.5-23.5-118,7.3-118,7.3l186.3,67.6
		C253.7,325.6,237.3,303.7,215.9,287.6z"/>
	<path class="st0" d="M2025.4,279.9l102.4-23.5c-61.4-38.4-105.2-16.1-129.8,6.6l-0.3-0.1c-56.5-23.5-118,7.3-118,7.3l186.3,67.6
		C2057.7,315.3,2043.6,295.4,2025.4,279.9z"/>
	<path class="st0" d="M2782.4,261.8l102.4-23.5c-61.4-38.4-105.2-16.1-129.8,6.6l-0.3-0.1c-56.5-23.5-118,7.3-118,7.3l186.3,67.6
		C2814.7,297.2,2800.6,277.3,2782.4,261.8z"/>
	<path class="st0" d="M547.2,287.5L649.6,264c-61.4-38.4-105.2-16.1-129.8,6.6l-0.3-0.1c-56.5-23.5-118,7.3-118,7.3l186.3,67.6
		C579.4,322.9,565.4,303,547.2,287.5z"/>
	<path class="st0" d="M1331.7,334.2c-1.6-4.2-3.4-8.3-5.4-12.4c-11-36.6-38.4-54-61.3-62.2l-0.2,0.4l-1.4-0.8
		c-56.5-23.5-118,7.3-118,7.3l138.7,50.4l46.6,55.2c1.2-14.7,0.5-27.5-1.7-38.9L1331.7,334.2z"/>
	<path class="st0" d="M3563.9,334.2c-1.6-4.2-3.4-8.3-5.4-12.4c-11-36.6-38.4-54-61.3-62.2l-0.2,0.4l-1.4-0.8
		c-56.5-23.5-118,7.3-118,7.3l138.7,50.4l46.6,55.2c1.2-14.7,0.5-27.5-1.7-38.9L3563.9,334.2z"/>
	<path class="st0" d="M979,314.9c-37.1-61.7-85.8-62.1-118-53.2l-1-0.5c-56.5-23.5-118,7.3-118,7.3l186.3,67.6
		c-5.4-14.5-13.2-27.8-22.9-39.6L979,314.9z"/>
	<path class="st0" d="M1752.3,314.9c-37.1-61.7-85.8-62.1-118-53.2l-1-0.5c-56.5-23.5-118,7.3-118,7.3l186.3,67.6
		c-5.4-14.5-13.2-27.8-22.9-39.6L1752.3,314.9z"/>
	<path class="st0" d="M3234.5,314.9c-37.1-61.7-85.8-62.1-118-53.2l-1-0.5c-56.5-23.5-118,7.3-118,7.3l186.3,67.6
		c-5.4-14.5-13.2-27.8-22.9-39.6L3234.5,314.9z"/>
</g>
</svg>
