<svg width="164" height="278" xmlns="http://www.w3.org/2000/svg">
 <title>convert</title>

 <g>
  <title>background</title>
  <rect fill="none" id="canvas_background" height="280" width="166" y="-1" x="-1"/>
 </g>
 <g>
  <title>Layer 1</title>
  <line id="svg_1" stroke-width="2" stroke-miterlimit="10" stroke="#3f3d56" fill="none" y2="212" x2="507" y1="26" x1="507"/>
  <ellipse id="svg_3" fill="#f2f2f2" ry="26" rx="135" cy="26" cx="507"/>
  <ellipse id="svg_5" fill="#3f3d56" ry="9" rx="135" cy="543" cx="879"/>
  <circle id="svg_7" fill="#6c63ff" r="15" cy="26" cx="507"/>
  <circle id="svg_16" fill="#2f2e41" r="79" cy="434" cx="507"/>
  <rect id="svg_17" fill="#2f2e41" height="43" width="24" y="496" x="471"/>
  <rect id="svg_18" fill="#2f2e41" height="43" width="24" y="496" x="519"/>
  <ellipse id="svg_19" fill="#2f2e41" ry="7.5" rx="20" cy="539.5" cx="491"/>
  <ellipse id="svg_20" fill="#2f2e41" ry="7.5" rx="20" cy="538.5" cx="539"/>
  <circle id="svg_21" fill="#fff" r="27" cy="414" cx="509"/>
  <circle id="svg_22" fill="#3f3d56" r="9" cy="414" cx="509"/>
  <path id="svg_23" fill="#3f3d56" d="m430.36733,360.53228c-6.37889,-28.56758 14.01185,-57.43392 45.544,-64.47477s34.70978,10.37491 41.08867,38.94249s13.0367,39.1389 -18.49544,46.17975s-61.75834,7.92011 -68.13723,-20.64747z"/>
  <circle id="svg_24" fill="#2f2e41" r="79" cy="434" cx="879"/>
  <rect id="svg_25" fill="#2f2e41" height="43" width="24" y="496" x="843"/>
  <rect id="svg_26" fill="#2f2e41" height="43" width="24" y="496" x="891"/>
  <ellipse id="svg_27" fill="#2f2e41" ry="7.5" rx="20" cy="539.5" cx="863"/>
  <ellipse id="svg_28" fill="#2f2e41" ry="7.5" rx="20" cy="538.5" cx="911"/>
  <circle id="svg_29" fill="#fff" r="27" cy="414" cx="881"/>
  <circle id="svg_30" fill="#3f3d56" r="9" cy="414" cx="881"/>
  <path id="svg_31" fill="#6c63ff" d="m802.36733,360.53228c-6.37889,-28.56758 14.01185,-57.43392 45.544,-64.47477s62.2651,10.41 68.644,38.9776s-14.51861,39.10379 -46.05075,46.14464s-61.75836,7.92011 -68.13725,-20.64747z"/>
  <path id="svg_32" fill="#6c63ff" d="m544.5553,335.0351c-6.37226,-28.53779 -37.04785,-45.9798 -68.54553,-38.99726l21.973,85.25531c0.17413,-0.03851 0.34759,-0.07452 0.52179,-0.1134c31.53212,-7.04083 52.42964,-17.57709 46.05074,-46.14465z"/>
  <path id="svg_33" fill="#3f3d56" d="m492,26a15,15 0 0 0 15,15l0,-30a15,15 0 0 0 -15,15z"/>
  <path id="svg_34" fill="#9ccc99" d="m159.651999,131.8779c0,58.48093 -34.766,78.90029 -77.652,78.90029s-77.652,-20.41936 -77.652,-78.90029s77.652,-132.8779 77.652,-132.8779s77.652,74.39697 77.652,132.8779z"/>
  <polygon transform="rotate(-1.5833548307418823 80.847991943359,136.05749511718727) " stroke="null" id="svg_35" fill="#3f3d56" points="78.99138270742424,204.47650146484375 80.09164505732679,156.82577514648438 125.89949798583984,97.87450408935547 80.2646523376552,149.35049438476562 80.76012538838222,127.92457580566406 112.32932468314539,85.27423858642578 80.89021732443871,122.25434875488281 80.89021732443871,122.25434875488281 81.78013938667209,83.7193832397461 115.58588661697104,49.76426315307617 81.91994169845839,77.65972137451172 82.47627848096909,7.000007629394531 78.98167233169443,100.54119873046875 79.26956013158724,96.68187713623047 44.89910712983465,59.67350769042969 78.71870632402351,104.08995056152344 75.51612504634795,147.12681579589844 75.4206201137049,145.98477172851562 35.79649704227268,107.03800964355469 75.30021145465525,150.02032470703125 74.90022527075598,155.40237426757812 74.82826009546352,155.4832000732422 74.86150119563627,155.92518615722656 66.7359852456384,265.114990234375 77.59074004634112,265.114990234375 78.89449573990987,208.71652221679688 118.29992308409146,165.83932495117188 78.99138270742424,204.47650146484375 "/>
  <ellipse id="svg_36" fill="#3f3d56" ry="8" rx="27" cy="264.00131" cx="76.348001"/>
  <path id="svg_37" fill="#f2f2f2" d="m771,355.76553c0,58.48093 -34.766,78.90029 -77.652,78.90029s-77.652,-20.41936 -77.652,-78.90029s77.652,-132.8779 77.652,-132.8779s77.652,74.39697 77.652,132.8779z"/>
  <polygon id="svg_38" fill="#3f3d56" points="690.519 425.72 691.314 376.777 724.412 316.227 691.439 369.099 691.797 347.092 714.607 303.285 691.891 341.268 691.891 341.268 692.534 301.688 716.96 266.812 692.635 295.464 693.037 222.888 690.512 318.966 690.72 315.002 665.886 276.99 690.322 322.611 688.008 366.815 687.939 365.642 659.309 325.639 687.852 369.787 687.563 375.315 687.511 375.398 687.535 375.852 681.664 488.003 689.507 488.003 690.449 430.075 718.921 386.035 690.519 425.72"/>
  <ellipse id="svg_39" fill="#3f3d56" ry="8" rx="27" cy="488" cx="686"/>
 </g>
</svg>