<?xml version="1.0" encoding="utf-8"?>
<!-- Generator: Adobe Illustrator 24.1.0, SVG Export Plug-In . SVG Version: 6.00 Build 0)  -->
<svg version="1.1" xmlns="http://www.w3.org/2000/svg" xmlns:xlink="http://www.w3.org/1999/xlink" x="0px" y="0px"
	 viewBox="0 0 325.2 19.5" style="enable-background:new 0 0 325.2 19.5;" xml:space="preserve">
<style type="text/css">
	.st0{display:none;}
	.st1{display:inline;fill:#3F3D56;}
	.st2{display:inline;fill:#6C63FF;}
	.st3{display:inline;opacity:0.2;enable-background:new    ;}
	.st4{display:inline;fill:#E6E6E6;}
	.st5{display:inline;fill:#FFFFFF;}
	.st6{display:inline;fill:#9E616A;}
	.st7{display:inline;fill:#2F2E41;}
	.st8{fill:#3F3D56;}
	.st9{fill:none;stroke:#ED1C24;stroke-width:0.25;stroke-miterlimit:10;}
</style>
<g id="add8efa2-ea20-4a06-887e-6413c87b31a4" class="st0">
	<path class="st1" d="M572.7,161.5h-2C570.7,67.9,494.5-8.3,401-8.3c-93.6,0-169.7,76.1-169.7,169.7h-2c0-94.7,77-171.7,171.7-171.7
		C495.6-10.2,572.7,66.8,572.7,161.5z"/>
	<circle class="st2" cx="115.5" cy="-51.9" r="161.4"/>
	<path class="st3" d="M235.5-159.7c35,81.9-3,176.8-84.9,211.8C86.8,79.3,12.8,62.8-33.3,11.1C1.7,93,96.5,131,178.5,96
		s120-129.9,85-211.8C256.6-131.8,247.1-146.7,235.5-159.7z"/>
	<polygon class="st1" points="115.9,-51.9 116.4,-51.9 124.4,405.5 107.5,405.5 	"/>
	<path class="st1" d="M313.5,10.1l9.1-7.3c-7.1-0.8-10,3.1-11.1,6.1C306,6.6,300,9.6,300,9.6l18.2,6.6
		C317.2,13.8,315.6,11.6,313.5,10.1z"/>
</g>
<g id="Layer_2">
	<path class="st8" d="M313.5,10.1l9.1-7.3c-7.1-0.8-10,3.1-11.1,6.1C306,6.6,300,9.6,300,9.6l18.2,6.6
		C317.2,13.8,315.6,11.6,313.5,10.1z"/>
	<path class="st8" d="M20.4,10.1l9.1-7.3c-7.1-0.8-10,3.1-11.1,6.1C12.9,6.6,6.9,9.6,6.9,9.6L25,16.2C24.1,13.8,22.5,11.6,20.4,10.1
		z"/>
	<path class="st8" d="M265.9,10.6l10-2.3c-6-3.7-10.3-1.6-12.7,0.6l0,0c-5.5-2.3-11.5,0.7-11.5,0.7l18.2,6.6
		C269,14,267.7,12.1,265.9,10.6z"/>
	<path class="st8" d="M69.4,10.6l10-2.3c-6-3.7-10.3-1.6-12.7,0.6l0,0c-5.5-2.3-11.5,0.7-11.5,0.7l18.2,6.6
		C72.6,14,71.2,12.1,69.4,10.6z"/>
	<path class="st8" d="M174.6,12.5c-0.2-0.4-0.3-0.8-0.5-1.2c-1.1-3.6-3.7-5.3-6-6.1l0,0L168,5.2c-5.5-2.3-11.5,0.7-11.5,0.7
		l13.5,4.9l4.5,5.4c0.1-1.4,0-2.7-0.2-3.8L174.6,12.5z"/>
	<path class="st8" d="M226.2,14.2c-3.6-6-8.4-6.1-11.5-5.2l-0.1-0.1c-5.5-2.3-11.5,0.7-11.5,0.7l18.2,6.6c-0.5-1.4-1.3-2.7-2.2-3.9
		L226.2,14.2z"/>
	<path class="st8" d="M128,14.2c-3.6-6-8.4-6.1-11.5-5.2l-0.1-0.1c-5.5-2.3-11.5,0.7-11.5,0.7l18.2,6.6c-0.5-1.4-1.3-2.7-2.2-3.9
		L128,14.2z"/>
</g>
</svg>
