<?xml version="1.0" encoding="utf-8"?>
<!-- Generator: Adobe Illustrator 24.1.2, SVG Export Plug-In . SVG Version: 6.00 Build 0)  -->
<svg version="1.1" xmlns="http://www.w3.org/2000/svg" xmlns:xlink="http://www.w3.org/1999/xlink" x="0px" y="0px"
	 viewBox="0 0 921.9 659" style="enable-background:new 0 0 921.9 659;" xml:space="preserve">
<style type="text/css">
	.st0{fill:#3F3D56;}
	.st1{fill:#E6E6E6;}
	.st2{fill:#FFFFFF;}
	.st3{fill:#BABABA;}
	.st4{fill:#A9CEA7;}
	.st5{opacity:0.8;fill:#E6E6E6;enable-background:new    ;}
	.st6{opacity:0.4;fill:#E6E6E6;enable-background:new    ;}
	.st7{opacity:0.6;fill:#E6E6E6;enable-background:new    ;}
	.st8{opacity:0.8;fill:#BABABA;}
	.st9{opacity:0.4;fill:#BABABA;}
	.st10{opacity:0.6;fill:#BABABA;}
	.st11{opacity:0.8;fill:#A9CEA7;enable-background:new    ;}
	.st12{opacity:0.4;fill:#A9CEA7;enable-background:new    ;}
	.st13{opacity:0.6;fill:#A9CEA7;enable-background:new    ;}
	.st14{fill:#FFC9BB;}
	.st15{fill:#2F2E41;}
</style>
<g id="fafb0f89-a72a-431c-9009-ab2c777222ec">
	<polygon class="st0" points="921.5,659 347.4,659 347.4,656.8 921.9,656.8 	"/>
	<path class="st1" d="M4.7,0C2.1,0,0,2.1,0,4.7v270.8c0,2.6,2.1,4.7,4.7,4.7h536.8c2.6,0,4.7-2.1,4.7-4.7V4.7c0-2.6-2.1-4.7-4.7-4.7
		L4.7,0z"/>
	<path class="st2" d="M12.2,7.5c-2.6,0-4.7,2.1-4.7,4.7V268c0,2.6,2.1,4.7,4.7,4.7H534c2.6,0,4.7-2.1,4.7-4.7V12.2
		c0-2.6-2.1-4.7-4.7-4.7H12.2z"/>
	<path class="st3" d="M168.8,172.1H57.8c-3.6,0-6.6-2.9-6.6-6.6V54.5c0-3.6,2.9-6.6,6.6-6.6h110.9c3.6,0,6.6,2.9,6.6,6.6v110.9
		C175.3,169.1,172.4,172.1,168.8,172.1z M57.8,49.8c-2.6,0-4.7,2.1-4.7,4.7v110.9c0,2.6,2.1,4.7,4.7,4.7h110.9
		c2.6,0,4.7-2.1,4.7-4.7V54.5c0-2.6-2.1-4.7-4.7-4.7H57.8z"/>
	<path class="st1" d="M328.6,172.1H217.7c-3.6,0-6.6-2.9-6.6-6.6V54.5c0-3.6,2.9-6.6,6.6-6.6h110.9c3.6,0,6.6,2.9,6.6,6.6v110.9
		C335.2,169.1,332.2,172.1,328.6,172.1z M217.7,49.8c-2.6,0-4.7,2.1-4.7,4.7v110.9c0,2.6,2.1,4.7,4.7,4.7h110.9
		c2.6,0,4.7-2.1,4.7-4.7V54.5c0-2.6-2.1-4.7-4.7-4.7H217.7z"/>
	<path class="st1" d="M226.1,58.3c-2.6,0-4.7,2.1-4.7,4.7v94c0,2.6,2.1,4.7,4.7,4.7h94c2.6,0,4.7-2.1,4.7-4.7V63
		c0-2.6-2.1-4.7-4.7-4.7L226.1,58.3z"/>
	<path class="st3" d="M66.8,58.3c-2.6,0-4.7,2.1-4.7,4.7v94c0,2.6,2.1,4.7,4.7,4.7h94c2.6,0,4.7-2.1,4.7-4.7V63
		c0-2.6-2.1-4.7-4.7-4.7L66.8,58.3z"/>
	<path class="st4" d="M385.5,58.3c-2.6,0-4.7,2.1-4.7,4.7v94c0,2.6,2.1,4.7,4.7,4.7h94c2.6,0,4.7-2.1,4.7-4.7V63
		c0-2.6-2.1-4.7-4.7-4.7L385.5,58.3z"/>
	<path class="st4" d="M488.4,172.1H377.5c-3.6,0-6.6-2.9-6.6-6.6V54.5c0-3.6,2.9-6.6,6.6-6.6h110.9c3.6,0,6.6,2.9,6.6,6.6v110.9
		C495,169.1,492.1,172.1,488.4,172.1z M377.5,49.8c-2.6,0-4.7,2.1-4.7,4.7v110.9c0,2.6,2.1,4.7,4.7,4.7h110.9c2.6,0,4.7-2.1,4.7-4.7
		V54.5c0-2.6-2.1-4.7-4.7-4.7H377.5z"/>
	<circle class="st5" cx="228.5" cy="207.8" r="16"/>
	<circle class="st6" cx="318.7" cy="207.8" r="16"/>
	<circle class="st7" cx="273.6" cy="207.8" r="16"/>
	<circle class="st8" cx="68.6" cy="207.8" r="16"/>
	<circle class="st9" cx="158.9" cy="207.8" r="16"/>
	<circle class="st10" cx="113.8" cy="207.8" r="16"/>
	<circle class="st11" cx="388.3" cy="207.8" r="16"/>
	<circle class="st12" cx="478.6" cy="207.8" r="16"/>
	<circle class="st13" cx="433.4" cy="207.8" r="16"/>
	<polygon class="st2" points="422.9,140.4 400.4,111.4 413.5,101.2 424.1,114.9 460.2,76.8 472.3,88.3 	"/>
	<path class="st0" d="M634.6,317.1c-1.1-1.1-2.7-1.2-4-0.4l-24.3,15.8c-1.5,1-1.9,2.9-0.9,4.4c0.1,0.2,0.3,0.4,0.4,0.5l61.7,61.4
		c1.2,1.2,3.3,1.2,4.5,0c0,0,0,0,0,0l20.2-20.9c1.2-1.3,1.2-3.3-0.1-4.5L634.6,317.1z"/>
	<path class="st2" d="M611.1,334.2l2.5-1.6c-0.6,1.2-0.2,2.6,0.9,3.3c0.8,0.4,1.8,0.4,2.5-0.1l16.2-11.2c1.1-0.7,1.4-2.2,0.6-3.3
		c-0.3-0.4-0.7-0.8-1.3-0.9l1.3-0.8c0.3-0.2,0.8-0.2,1.1,0.1l54.7,53.7c0.3,0.3,0.3,0.9,0,1.2c0,0,0,0,0,0l-19.8,19.3
		c-0.3,0.3-0.9,0.3-1.2,0L611,335.6c-0.3-0.3-0.3-0.9,0-1.2C611,334.3,611,334.3,611.1,334.2z"/>
	<polygon class="st4" points="674.2,361.5 657.4,377.3 617.5,337.9 637.8,324.7 	"/>
	<path class="st1" d="M619.1,347.6c0.2-0.2,0.2-0.6,0-0.8l-3.5-3.5c-0.2-0.2-0.6-0.2-0.8,0c-0.2,0.2-0.2,0.6,0,0.8l3.5,3.5
		C618.5,347.9,618.9,347.9,619.1,347.6z"/>
	<path class="st1" d="M625,352.7l-3.5-3.5c-0.2-0.2-0.6-0.2-0.8,0c-0.2,0.2-0.2,0.6,0,0.8l3.5,3.5c0.2,0.2,0.6,0.2,0.8,0
		C625.2,353.3,625.2,352.9,625,352.7z"/>
	<circle class="st4" cx="673.8" cy="375.1" r="3.9"/>
	<path class="st14" d="M787.3,383.1l-3,14.7c-1.4,6.6,2.9,13,9.5,14.4c2.2,0.4,4.4,0.3,6.5-0.4l0,0c6.1-2.2,9.5-8.7,7.6-14.9
		l-4.1-13.7l36.7-107.5h-31.2L787.3,383.1z"/>
	<circle class="st14" cx="754.2" cy="140.6" r="28.5"/>
	<path class="st14" d="M749.6,191.1l37.7-4.6c-8.6-10.8-11.9-22.1-9.2-34l-34,3.7L749.6,191.1z"/>
	<path class="st4" d="M702.8,350l89.1-20.2c19-14.8,31.4-44.2,41-79.7c7-25.9-5.5-53.4-30.1-64.1c-0.6-0.3-1.2-0.5-1.8-0.7
		l-20.1-7.9l-33.1,2.8l-11.8,3.2c-5.1,1.4-8.9,5.7-9.7,10.9C710.4,252.4,700,306.4,702.8,350z"/>
	<polygon class="st4" points="804.8,293.1 844.2,293.1 831.4,215.9 804.8,218.7 	"/>
	<path class="st15" d="M671.6,627.4h23.9l50.1-175.9l19.3,175.9h28l11-282c-4.2-21.6-4.1-47.4-1.8-75.3
		c19.7-13.8,12.5-46.5,14.7-79.4c0-0.3-0.1-0.6-0.3-0.9l-12.7-6.6c-0.4-0.5-1.2-0.6-1.8-0.1c-0.3,0.3-0.5,0.6-0.4,1
		c-0.3,23,5.9,50.3-4.1,68.5c-10.8-37.1-25-68.2-52.5-75.1c-0.5-0.1-1.1-0.1-1.6,0l-5.1,1.5c-1.6,0.5-2.5,2.2-2.1,3.8
		c0.2,0.7,0.7,1.4,1.3,1.8c25.2,15.5,41.4,41.6,42.5,85.6c-19.6,27.7-38.6,44.1-73,64.3c-3.5,2.1-5.8,5.7-6.2,9.7L671.6,627.4z"/>
	<path class="st15" d="M757.9,166.5l20.2-3.8l12-20.5c6-10.2,4.7-23.1-3.2-32l0,0c-6.1-6.8-15.2-10.1-24.2-8.8l-26.2,3.7
		c-9.4,1.3-16,10.1-14.7,19.5c0,0,0,0.1,0,0.1l17.6,3L757.9,166.5z"/>
	<path class="st15" d="M643.6,658.2h42.1c7.6,0,13.8-6.2,13.8-13.8c0-0.7,0-1.3-0.1-2l-2.6-18.1l-19.1-1.4l-37.9,17.7
		c-3.5,1.7-5.7,5.4-5.3,9.2l0,0C634.9,654.6,638.9,658.2,643.6,658.2z"/>
	<path class="st15" d="M739.1,658.2h42.1c7.6,0,13.8-6.2,13.8-13.8c0-0.7,0-1.3-0.1-2l-2.6-18.1l-19.1-1.4l-37.9,17.7
		c-3.5,1.7-5.7,5.4-5.3,9.2l0,0C730.4,654.6,734.4,658.2,739.1,658.2z"/>
	<path class="st14" d="M659.2,349.3l-18.2,6.3c-6.7,2.3-10.3,9.7-7.9,16.4c0.8,2.3,2.3,4.4,4.2,5.9l0,0c4.3,3.4,10.3,3.7,14.9,0.7
		l16.6-10.7l56.6-57.6l8.8-67.7c2.3-17.5-4.6-35-18.2-46.3l0,0l-18.5,103.1L659.2,349.3z"/>
	<path class="st4" d="M698.2,279.3h40.4l-0.9-96.4l0,0c-19.7,4.9-33.9,22-35.2,42.3L698.2,279.3z"/>
	<ellipse class="st14" cx="745.9" cy="144.5" rx="5" ry="6"/>
</g>
<g id="Layer_1">
</g>
</svg>
