<?xml version="1.0" encoding="utf-8"?>
<!-- Generator: Adobe Illustrator 24.1.0, SVG Export Plug-In . SVG Version: 6.00 Build 0)  -->
<svg version="1.1" xmlns="http://www.w3.org/2000/svg" xmlns:xlink="http://www.w3.org/1999/xlink" x="0px" y="0px"
	 viewBox="0 0 498.2 162.2" style="enable-background:new 0 0 498.2 162.2;" xml:space="preserve">
<style type="text/css">
	.st0{display:none;}
	.st1{display:inline;fill:#3F3D56;}
	.st2{display:inline;fill:#6C63FF;}
	.st3{display:inline;opacity:0.2;enable-background:new    ;}
	.st4{display:inline;fill:#E6E6E6;}
	.st5{display:inline;fill:#FFFFFF;}
	.st6{display:inline;fill:#9E616A;}
	.st7{display:inline;fill:#2F2E41;}
	.st8{fill:#3F3D56;}
	.st9{fill:none;stroke:#ED1C24;stroke-width:0.25;stroke-miterlimit:10;}
</style>
<g id="add8efa2-ea20-4a06-887e-6413c87b31a4" class="st0">
	<path class="st1" d="M572.7,290.8h-2c0-93.6-76.1-169.7-169.7-169.7c-93.6,0-169.7,76.1-169.7,169.7h-2
		c0-94.7,77-171.7,171.7-171.7C495.6,119.1,572.7,196.2,572.7,290.8z"/>
	<circle class="st2" cx="115.5" cy="77.4" r="161.4"/>
	<path class="st3" d="M235.5-30.4c35,81.9-3,176.8-84.9,211.8c-63.8,27.3-137.8,10.7-183.9-41c35,81.9,129.9,120,211.8,85
		s120-129.9,85-211.8C256.6-2.5,247.1-17.3,235.5-30.4z"/>
	<polygon class="st1" points="115.9,77.4 116.4,77.4 124.4,534.9 107.5,534.9 	"/>
	
		<ellipse transform="matrix(0.1602 -0.9871 0.9871 0.1602 262.3981 651.4301)" class="st2" cx="514" cy="171.5" rx="52.6" ry="52.6"/>
	<path class="st3" d="M553.2,136.4c11.4,26.7-1,57.7-27.7,69.1c-20.8,8.9-44.9,3.5-60-13.4c11.4,26.7,42.4,39.1,69.1,27.7
		c26.7-11.4,39.1-42.4,27.7-69.1C560,145.4,557,140.6,553.2,136.4L553.2,136.4z"/>
	<path class="st1" d="M482.3,83.2l9.1-7.3c-7.1-0.8-10,3.1-11.1,6.1c-5.5-2.3-11.5,0.7-11.5,0.7l18.2,6.6
		C486,86.9,484.4,84.8,482.3,83.2z"/>
	<path class="st1" d="M313.5,139.4l9.1-7.3c-7.1-0.8-10,3.1-11.1,6.1C306,136,300,139,300,139l18.2,6.6
		C317.2,143.1,315.6,141,313.5,139.4z"/>
	<path class="st1" d="M357.9,23l9.1-7.3c-7.1-0.8-10,3.1-11.1,6.1c-5.5-2.3-11.5,0.7-11.5,0.7l18.2,6.6
		C361.6,26.7,360,24.6,357.9,23z"/>
</g>
<g id="Layer_2">
	<path class="st8" d="M313.5,139.4l9.1-7.3c-7.1-0.8-10,3.1-11.1,6.1C306,136,300,139,300,139l18.2,6.6
		C317.2,143.1,315.6,141,313.5,139.4z"/>
	<path class="st8" d="M20.4,139.4l9.1-7.3c-7.1-0.8-10,3.1-11.1,6.1C12.9,136,6.9,139,6.9,139l18.2,6.6
		C24.1,143.1,22.5,141,20.4,139.4z"/>
	<path class="st8" d="M265.9,140l10-2.3c-6-3.7-10.3-1.6-12.7,0.6l0,0c-5.5-2.3-11.5,0.7-11.5,0.7l18.2,6.6
		C269,143.4,267.7,141.5,265.9,140z"/>
	<path class="st8" d="M69.4,140l10-2.3c-6-3.7-10.3-1.6-12.7,0.6l0,0c-5.5-2.3-11.5,0.7-11.5,0.7l18.2,6.6
		C72.6,143.4,71.2,141.5,69.4,140z"/>
	<path class="st8" d="M174.6,141.9c-0.2-0.4-0.3-0.8-0.5-1.2c-1.1-3.6-3.7-5.3-6-6.1l0,0l-0.1-0.1c-5.5-2.3-11.5,0.7-11.5,0.7
		l13.5,4.9l4.5,5.4c0.1-1.4,0-2.7-0.2-3.8L174.6,141.9z"/>
	<path class="st8" d="M226.2,143.5c-3.6-6-8.4-6.1-11.5-5.2l-0.1-0.1c-5.5-2.3-11.5,0.7-11.5,0.7l18.2,6.6c-0.5-1.4-1.3-2.7-2.2-3.9
		L226.2,143.5z"/>
	<path class="st8" d="M128,143.5c-3.6-6-8.4-6.1-11.5-5.2l-0.1-0.1c-5.5-2.3-11.5,0.7-11.5,0.7l18.2,6.6c-0.5-1.4-1.3-2.7-2.2-3.9
		L128,143.5z"/>
	<path class="st8" d="M357.9,23l9.1-7.3c-7.1-0.8-10,3.1-11.1,6.1c-5.5-2.3-11.5,0.7-11.5,0.7l18.2,6.6
		C361.6,26.7,360,24.6,357.9,23z"/>
	<path class="st8" d="M64.8,23l9.1-7.3c-7.1-0.8-10,3.1-11.1,6.1c-5.5-2.3-11.5,0.7-11.5,0.7l18.2,6.6C68.5,26.7,66.9,24.6,64.8,23z
		"/>
	<path class="st8" d="M310.3,23.5l10-2.3c-6-3.7-10.3-1.6-12.7,0.6l0,0c-5.5-2.3-11.5,0.7-11.5,0.7l18.2,6.6
		C313.5,27,312.1,25,310.3,23.5z"/>
	<path class="st8" d="M113.8,23.5l10-2.3c-6-3.7-10.3-1.6-12.7,0.6l0,0c-5.5-2.3-11.5,0.7-11.5,0.7l18.2,6.6
		C117,27,115.6,25,113.8,23.5z"/>
	<path class="st8" d="M219,25.4c-0.2-0.4-0.3-0.8-0.5-1.2c-1.1-3.6-3.7-5.3-6-6.1l0,0l-0.1-0.1c-5.5-2.3-11.5,0.7-11.5,0.7l13.5,4.9
		l4.5,5.4c0.1-1.4,0-2.7-0.2-3.8L219,25.4z"/>
	<path class="st8" d="M270.6,27.1c-3.6-6-8.4-6.1-11.5-5.2l-0.1-0.1c-5.5-2.3-11.5,0.7-11.5,0.7l18.2,6.6c-0.5-1.4-1.3-2.7-2.2-3.9
		L270.6,27.1z"/>
	<path class="st8" d="M172.4,27.1c-3.6-6-8.4-6.1-11.5-5.2l-0.1-0.1c-5.5-2.3-11.5,0.7-11.5,0.7l18.2,6.6c-0.5-1.4-1.3-2.7-2.2-3.9
		L172.4,27.1z"/>
	<path class="st8" d="M482.3,83.2l9.1-7.3c-7.1-0.8-10,3.1-11.1,6.1c-5.5-2.3-11.5,0.7-11.5,0.7l18.2,6.6
		C486,86.9,484.4,84.8,482.3,83.2z"/>
	<path class="st8" d="M189.2,83.2l9.1-7.3c-7.1-0.8-10,3.1-11.1,6.1c-5.5-2.3-11.5,0.7-11.5,0.7l18.2,6.6
		C192.9,86.9,191.3,84.8,189.2,83.2z"/>
	<path class="st8" d="M434.7,83.7l10-2.3c-6-3.7-10.3-1.6-12.7,0.6l0,0c-5.5-2.3-11.5,0.7-11.5,0.7l18.2,6.6
		C437.8,87.2,436.4,85.2,434.7,83.7z"/>
	<path class="st8" d="M238.2,83.7l10-2.3c-6-3.7-10.3-1.6-12.7,0.6l0,0c-5.5-2.3-11.5,0.7-11.5,0.7l18.2,6.6
		C241.3,87.2,239.9,85.2,238.2,83.7z"/>
	<path class="st8" d="M343.4,85.6c-0.2-0.4-0.3-0.8-0.5-1.2c-1.1-3.6-3.7-5.3-6-6.1l0,0l-0.1-0.1c-5.5-2.3-11.5,0.7-11.5,0.7
		l13.5,4.9l4.5,5.4c0.1-1.4,0-2.7-0.2-3.8L343.4,85.6z"/>
	<path class="st8" d="M395,87.3c-3.6-6-8.4-6.1-11.5-5.2l-0.1-0.1c-5.5-2.3-11.5,0.7-11.5,0.7l18.2,6.6c-0.5-1.4-1.3-2.7-2.2-3.9
		L395,87.3z"/>
	<path class="st8" d="M296.7,87.3c-3.6-6-8.4-6.1-11.5-5.2l-0.1-0.1c-5.5-2.3-11.5,0.7-11.5,0.7l18.2,6.6c-0.5-1.4-1.3-2.7-2.2-3.9
		L296.7,87.3z"/>
	<path class="st8" d="M357.9,23l9.1-7.3c-7.1-0.8-10,3.1-11.1,6.1c-5.5-2.3-11.5,0.7-11.5,0.7l18.2,6.6
		C361.6,26.7,360,24.6,357.9,23z"/>
	<path class="st8" d="M482.3,83.2l9.1-7.3c-7.1-0.8-10,3.1-11.1,6.1c-5.5-2.3-11.5,0.7-11.5,0.7l18.2,6.6
		C486,86.9,484.4,84.8,482.3,83.2z"/>
</g>
</svg>
